<svg id="Capa_1" enable-background="new 0 0 512 512" height="512" viewBox="0 0 512 512" width="512" xmlns="http://www.w3.org/2000/svg"><g><g><path d="m143.774 47.581h-32.064c-8.854 0-16.032 7.178-16.032 16.032v144.29l64.129 2.144v-146.434c0-8.855-7.178-16.032-16.033-16.032z" fill="#e2a975"/><path d="m400.29 47.581h-32.065c-8.854 0-16.032 7.178-16.032 16.032v144.29l64.129 2.144v-146.434c.001-8.855-7.177-16.032-16.032-16.032z" fill="#e2a975"/><path d="m378.164 504.5h-244.328c-37.71 0-67.28-32.38-63.866-69.935l24.444-268.887c5.256-57.805 53.722-102.065 111.766-102.065h99.64c58.044 0 106.51 44.26 111.765 102.065l24.444 268.887c3.415 37.555-26.155 69.935-63.865 69.935z" fill="#b3e59f"/><path d="m305.82 95.677c41.733 0 76.054 31.342 79.832 72.904l24.445 268.887c.826 9.082-2.106 17.792-8.256 24.525-6.149 6.734-14.558 10.442-23.677 10.442h-244.328c-9.119 0-17.528-3.709-23.677-10.442-6.15-6.734-9.082-15.444-8.256-24.525l24.445-268.887c3.778-41.562 38.099-72.904 79.832-72.904z" fill="#ccf49f"/><path d="m346.628 405.644c-1.385-16.619-15.277-29.402-31.954-29.402h-117.348c-16.676 0-30.569 12.783-31.953 29.401l-4.119 49.428c-.779 9.347 6.597 17.364 15.977 17.364h157.539c9.379 0 16.756-8.017 15.977-17.364z" fill="#e2a975"/><circle cx="256" cy="187.863" fill="#e2a975" r="36.073"/><path d="m133.836 479.563c-11.398 0-21.149-4.52-28.836-12.938-7.686-8.418-11.199-18.531-10.167-29.882l30.417-337.118c-16.743 17.714-28.475 40.095-30.835 66.053l-24.444 268.887c-3.415 37.555 26.156 69.935 63.865 69.935h244.328c20.344 0 38.26-10.362 49.965-24.938h-294.293z" fill="#95d6a4"/><circle cx="256" cy="187.863" fill="#c38c66" r="12.024"/><circle cx="183.855" cy="328.145" fill="#e2a975" r="16.032"/><path d="m197.193 438.034c-6.143-6.677-9.111-15.333-8.358-24.374l3.075-36.901c-14.171 2.423-25.307 14.109-26.538 28.885l-4.12 49.429c-.779 9.347 6.598 17.364 15.977 17.364h157.54c9.379 0 16.756-8.017 15.977-17.364l-.558-6.685h-129.399c-9.072-.001-17.452-3.678-23.596-10.354z" fill="#d19a6e"/></g><g><path d="m449.499 433.886-24.444-268.887c-.287-3.152-.703-6.277-1.231-9.373v-92.013c0-12.976-10.557-23.532-23.532-23.532h-32.065c-12.634 0-22.971 10.01-23.506 22.514-5.992-2.057-12.153-3.637-18.43-4.722l-9.998-34.991c-3.851-13.473-16.325-22.882-30.336-22.882h-59.914c-14.011 0-26.484 9.409-30.334 22.881l-9.998 34.992c-6.278 1.085-12.438 2.665-18.43 4.722-.535-12.504-10.872-22.514-23.506-22.514h-32.065c-12.976 0-23.532 10.557-23.532 23.532v92.014c-.529 3.096-.945 6.22-1.231 9.373l-24.446 268.886c-1.817 19.994 4.904 39.963 18.442 54.788s32.817 23.326 52.893 23.326h244.327c20.076 0 39.354-8.502 52.893-23.327s20.26-34.793 18.443-54.787zm-89.806-370.273c0-4.705 3.828-8.532 8.532-8.532h32.065c4.705 0 8.532 3.828 8.532 8.532v51.171c-5.975-10.072-13.447-19.299-22.267-27.354-8.151-7.444-17.195-13.65-26.863-18.526v-5.291zm-149.562-36.611c2.02-7.066 8.563-12.002 15.912-12.002h59.914c7.35 0 13.893 4.936 15.912 12.002l8.342 29.199c-1.46-.053-2.923-.088-4.391-.088h-99.64c-1.467 0-2.93.035-4.391.088zm-106.954 36.611c0-4.705 3.828-8.532 8.532-8.532h32.065c4.705 0 8.532 3.828 8.532 8.532v5.292c-9.668 4.876-18.712 11.082-26.863 18.526-8.82 8.055-16.292 17.282-22.267 27.354v-51.172zm316.803 414.945c-10.703 11.72-25.944 18.442-41.816 18.442h-244.328c-15.872 0-31.113-6.722-41.816-18.442s-16.017-27.507-14.58-43.314l24.444-268.887c2.372-26.089 14.331-50.186 33.675-67.851s44.424-27.394 70.621-27.394h99.641c26.196 0 51.276 9.729 70.621 27.394 19.344 17.665 31.303 41.762 33.675 67.851l24.444 268.887c1.436 15.807-3.878 31.594-14.581 43.314z"/><path d="m393.122 167.902c-1.163-12.795-4.947-24.86-11.245-35.862-2.058-3.595-6.64-4.84-10.235-2.783-3.595 2.059-4.84 6.641-2.782 10.235 5.22 9.118 8.357 19.134 9.324 29.767l24.444 268.887c.632 6.957-1.614 13.629-6.325 18.788s-11.153 8-18.139 8h-19.069l-4.993-59.915c-1.695-20.343-19.014-36.278-39.428-36.278h-82.722c-4.142 0-7.5 3.357-7.5 7.5 0 4.142 3.358 7.5 7.5 7.5h82.722c12.674 0 23.427 9.894 24.479 22.524l4.889 58.669h-176.084l4.889-58.669c1.052-12.631 11.805-22.524 24.479-22.524h2.561c4.142 0 7.5-3.358 7.5-7.5 0-4.143-3.358-7.5-7.5-7.5h-2.561c-20.414 0-37.732 15.936-39.428 36.278l-4.993 59.915h-19.069c-6.986 0-13.428-2.841-18.139-8-4.711-5.158-6.957-11.831-6.325-18.789l24.444-268.887c3.425-37.673 34.534-66.082 72.363-66.082h99.641c15.242 0 29.786 4.581 42.06 13.247 3.383 2.39 8.063 1.583 10.453-1.8 2.389-3.384 1.583-8.063-1.8-10.453-14.818-10.464-32.354-15.994-50.712-15.994h-99.641c-45.638 0-83.169 34.274-87.301 79.725l-24.445 268.888c-1.018 11.206 2.6 21.953 10.187 30.262s17.963 12.885 29.215 12.885h244.327c11.252 0 21.628-4.576 29.215-12.885 7.588-8.309 11.206-19.056 10.187-30.262z"/><path d="m344.177 287.548c4.142 0 7.5-3.358 7.5-7.5s-3.358-7.5-7.5-7.5h-176.354c-4.142 0-7.5 3.358-7.5 7.5s3.358 7.5 7.5 7.5h8.532v18.297c-9.308 3.139-16.032 11.946-16.032 22.3 0 12.976 10.557 23.532 23.532 23.532s23.532-10.557 23.532-23.532c0-10.354-6.724-19.161-16.032-22.3v-18.297zm-160.322 49.13c-4.705 0-8.532-3.828-8.532-8.532 0-4.705 3.828-8.533 8.532-8.533s8.532 3.828 8.532 8.533c0 4.704-3.827 8.532-8.532 8.532z"/><path d="m299.573 187.863c0-24.026-19.547-43.573-43.573-43.573s-43.573 19.547-43.573 43.573 19.547 43.573 43.573 43.573 43.573-19.547 43.573-43.573zm-72.146 0c0-15.755 12.818-28.573 28.573-28.573s28.573 12.818 28.573 28.573-12.818 28.573-28.573 28.573-28.573-12.818-28.573-28.573z"/></g></g></svg>